<?xml version="1.0" encoding="UTF-8" standalone="no"?>
<!-- Created with Inkscape (http://www.inkscape.org/) -->

<svg
   xmlns:osb="http://www.openswatchbook.org/uri/2009/osb"
   xmlns:dc="http://purl.org/dc/elements/1.1/"
   xmlns:cc="http://creativecommons.org/ns#"
   xmlns:rdf="http://www.w3.org/1999/02/22-rdf-syntax-ns#"
   xmlns:svg="http://www.w3.org/2000/svg"
   xmlns="http://www.w3.org/2000/svg"
   xmlns:xlink="http://www.w3.org/1999/xlink"
   xmlns:sodipodi="http://sodipodi.sourceforge.net/DTD/sodipodi-0.dtd"
   xmlns:inkscape="http://www.inkscape.org/namespaces/inkscape"
   inkscape:export-ydpi="96.000008"
   inkscape:export-xdpi="96.000008"
   width="512"
   height="512"
   id="svg11300"
   sodipodi:version="0.32"
   inkscape:version="0.91 r13725"
   sodipodi:docname="transliterate.svg"
   inkscape:output_extension="org.inkscape.output.svg.inkscape"
   version="1.0"
   style="display:inline;enable-background:new"
   inkscape:export-filename="suru-icon-template.png">
  <title
     id="title3004">Suru Icon Template</title>
  <sodipodi:namedview
     stroke="#ef2929"
     fill="#f57900"
     id="base"
     pagecolor="#ebebeb"
     bordercolor="#666666"
     borderopacity="0.25490196"
     inkscape:pageopacity="1"
     inkscape:pageshadow="2"
     inkscape:zoom="1"
     inkscape:cx="-142.02711"
     inkscape:cy="291.12453"
     inkscape:current-layer="layer5"
     showgrid="false"
     inkscape:grid-bbox="true"
     inkscape:document-units="px"
     inkscape:showpageshadow="false"
     inkscape:window-width="1920"
     inkscape:window-height="971"
     inkscape:window-x="0"
     inkscape:window-y="27"
     width="400px"
     height="300px"
     inkscape:snap-nodes="true"
     inkscape:snap-bbox="true"
     gridtolerance="10000"
     inkscape:object-nodes="true"
     inkscape:snap-grids="true"
     showguides="true"
     inkscape:guide-bbox="true"
     inkscape:window-maximized="0"
     inkscape:bbox-nodes="true"
     inkscape:bbox-paths="true"
     inkscape:snap-bbox-midpoints="true"
     inkscape:snap-bbox-edge-midpoints="true"
     inkscape:snap-global="true">
    <inkscape:grid
       spacingy="1px"
       spacingx="1px"
       id="grid5883"
       type="xygrid"
       enabled="true"
       visible="true"
       empspacing="4"
       snapvisiblegridlinesonly="true" />
    <sodipodi:guide
       position="256,256"
       orientation="-0.70710678,0.70710678"
       id="guide10813"
       inkscape:label=""
       inkscape:color="rgb(0,0,255)" />
    <sodipodi:guide
       position="256,256"
       orientation="0.70710678,0.70710678"
       id="guide10815"
       inkscape:label=""
       inkscape:color="rgb(0,0,255)" />
    <sodipodi:guide
       position="104,408"
       orientation="1,0"
       id="guide10817" />
    <sodipodi:guide
       position="120,408"
       orientation="1,0"
       id="guide10819" />
    <sodipodi:guide
       position="136,408"
       orientation="1,0"
       id="guide10821" />
    <sodipodi:guide
       position="104,392"
       orientation="0,1"
       id="guide10823" />
    <sodipodi:guide
       position="104,408"
       orientation="0,1"
       id="guide10825" />
    <sodipodi:guide
       position="104,376"
       orientation="0,1"
       id="guide10827" />
    <sodipodi:guide
       position="408,408"
       orientation="1,0"
       id="guide10829" />
    <sodipodi:guide
       position="376,408"
       orientation="1,0"
       id="guide10831" />
    <sodipodi:guide
       position="392,408"
       orientation="1,0"
       id="guide10833" />
    <sodipodi:guide
       position="104,104"
       orientation="0,1"
       id="guide10837" />
    <sodipodi:guide
       position="104,120"
       orientation="0,1"
       id="guide10839" />
    <sodipodi:guide
       position="104,136"
       orientation="0,1"
       id="guide10841" />
    <sodipodi:guide
       position="0,496"
       orientation="0,1"
       id="guide10843"
       inkscape:label=""
       inkscape:color="rgb(255,0,0)" />
    <sodipodi:guide
       position="0,16"
       orientation="0,1"
       id="guide10845"
       inkscape:label=""
       inkscape:color="rgb(255,0,0)" />
  </sodipodi:namedview>
  <defs
     id="defs3">
    <linearGradient
       id="linearGradient5460"
       osb:paint="gradient">
      <stop
         style="stop-color:#e6e6e6;stop-opacity:1"
         offset="0"
         id="stop5462" />
      <stop
         style="stop-color:#ffffff;stop-opacity:1"
         offset="1"
         id="stop5464" />
    </linearGradient>
    <linearGradient
       id="linearGradient5476"
       osb:paint="solid">
      <stop
         style="stop-color:#772953;stop-opacity:1;"
         offset="0"
         id="stop5478" />
    </linearGradient>
    <linearGradient
       id="linearGradient3045">
      <stop
         id="stop3047"
         offset="0"
         style="stop-color:#847784;stop-opacity:0.99607843" />
      <stop
         id="stop3049"
         offset="1"
         style="stop-color:#695f69;stop-opacity:1" />
    </linearGradient>
    <linearGradient
       id="linearGradient4213">
      <stop
         style="stop-color:#b1d7f3;stop-opacity:1"
         offset="0"
         id="stop4215" />
      <stop
         style="stop-color:#8fafda;stop-opacity:1"
         offset="1"
         id="stop4217" />
    </linearGradient>
    <filter
       id="filter4154"
       color-interpolation-filters="sRGB">
      <feComposite
         operator="arithmetic"
         k4="0"
         result="composite1"
         k1="0"
         k2="1"
         k3="0"
         in2="SourceGraphic"
         id="feComposite4156" />
      <feColorMatrix
         in="composite1"
         result="colormatrix1"
         values="0"
         type="saturate"
         id="feColorMatrix4158" />
      <feFlood
         flood-color="rgb(72,59,72)"
         result="flood1"
         id="feFlood4160" />
      <feBlend
         in="flood1"
         in2="colormatrix1"
         mode="multiply"
         result="blend1"
         id="feBlend4162" />
      <feBlend
         result="blend2"
         in2="blend1"
         mode="screen"
         id="feBlend4164" />
      <feColorMatrix
         in="blend2"
         result="colormatrix2"
         values="1"
         type="saturate"
         id="feColorMatrix4166" />
      <feComposite
         in="colormatrix2"
         in2="SourceGraphic"
         result="composite2"
         operator="in"
         id="feComposite4168" />
    </filter>
    <clipPath
       id="clipPath3062"
       clipPathUnits="userSpaceOnUse">
      <rect
         y="-194.96773"
         x="34.167744"
         height="445.93549"
         width="475.66452"
         id="rect3064"
         style="color:#000000;fill:url(#linearGradient3066);fill-opacity:1;fill-rule:nonzero;stroke:none;stroke-width:40;marker:none;visibility:visible;display:inline;overflow:visible;enable-background:new" />
    </clipPath>
    <linearGradient
       y2="288"
       x2="256"
       y1="50"
       x1="256"
       gradientTransform="matrix(1.8580645,0,0,1.8736786,4.4387126,-288.65166)"
       gradientUnits="userSpaceOnUse"
       id="linearGradient3066"
       xlink:href="#linearGradient3045"
       inkscape:collect="always" />
  </defs>
  <metadata
     id="metadata4">
    <rdf:RDF>
      <cc:Work
         rdf:about="">
        <dc:format>image/svg+xml</dc:format>
        <dc:type
           rdf:resource="http://purl.org/dc/dcmitype/StillImage" />
        <dc:creator>
          <cc:Agent>
            <dc:title>Sam Hewitt</dc:title>
          </cc:Agent>
        </dc:creator>
        <dc:source />
        <cc:license
           rdf:resource="http://creativecommons.org/licenses/by-sa/3.0/" />
        <dc:title>Suru Icon Template</dc:title>
        <dc:subject>
          <rdf:Bag />
        </dc:subject>
        <dc:date />
        <dc:rights>
          <cc:Agent>
            <dc:title />
          </cc:Agent>
        </dc:rights>
        <dc:publisher>
          <cc:Agent>
            <dc:title />
          </cc:Agent>
        </dc:publisher>
        <dc:identifier />
        <dc:relation />
        <dc:language />
        <dc:coverage />
        <dc:description />
        <dc:contributor>
          <cc:Agent>
            <dc:title />
          </cc:Agent>
        </dc:contributor>
      </cc:Work>
      <cc:Work
         rdf:about="">
        <dc:format>image/svg+xml</dc:format>
        <dc:type
           rdf:resource="http://purl.org/dc/dcmitype/StillImage" />
      </cc:Work>
      <cc:License
         rdf:about="http://creativecommons.org/licenses/by-sa/3.0/">
        <cc:permits
           rdf:resource="http://creativecommons.org/ns#Reproduction" />
        <cc:permits
           rdf:resource="http://creativecommons.org/ns#Distribution" />
        <cc:requires
           rdf:resource="http://creativecommons.org/ns#Notice" />
        <cc:requires
           rdf:resource="http://creativecommons.org/ns#Attribution" />
        <cc:permits
           rdf:resource="http://creativecommons.org/ns#DerivativeWorks" />
        <cc:requires
           rdf:resource="http://creativecommons.org/ns#ShareAlike" />
      </cc:License>
    </rdf:RDF>
  </metadata>
  <g
     style="display:inline"
     inkscape:groupmode="layer"
     inkscape:label="Icon"
     id="layer1"
     transform="translate(0,212)">
    <g
       style="display:inline"
       inkscape:label="Background"
       id="g3055"
       inkscape:groupmode="layer">
      <path
         inkscape:connector-curvature="0"
         style="color:#000000;display:inline;overflow:visible;visibility:visible;fill:none;fill-opacity:1;fill-rule:nonzero;stroke:none;stroke-width:1;marker:none;enable-background:accumulate"
         d="M 0,-212 0,-28.10156 0,116.10156 0,300 512,300 512,116.10156 512,-28.10156 512,-212 0,-212 Z"
         id="rect4158" />
    </g>
    <g
       inkscape:groupmode="layer"
       id="layer5"
       inkscape:label="Pictogram"
       style="display:inline">
      <circle
         style="display:inline;opacity:1;fill:none;fill-opacity:1;stroke:none;stroke-width:0.09999999;stroke-miterlimit:4;stroke-dasharray:none;stroke-opacity:1;enable-background:new"
         id="circle4729"
         cx="256"
         cy="46"
         r="160" />
      <g
         transform="matrix(13.849526,0,-1.3372618,18.023439,-127.01283,-735.49946)"
         style="font-style:normal;font-weight:normal;font-size:40px;line-height:125%;font-family:sans-serif;letter-spacing:0px;word-spacing:0px;display:inline;fill:#000000;fill-opacity:1;stroke:#000000;stroke-width:1.26588345;stroke-linecap:butt;stroke-linejoin:miter;stroke-miterlimit:4;stroke-dasharray:none;stroke-opacity:1;enable-background:new"
         id="flowRoot5812">
        <path
           d="m 29.12,33.009922 q -0.56,0.44 -1,1.24 -0.44,0.76 -0.44,1.84 l 0,2.72 q 0,0.16 0,0.32 0,0.16 -0.04,0.32 0.76,-0.12 1.56,-0.12 1.36,0 2.48,0.2 1.16,0.2 2.32,0.64 l 0,-4.36 q 0,-0.2 0,-0.44 0,-0.24 0.04,-0.44 l -3.52,-3.84 0.4,-0.96 14.8,0 2.64,2.88 q -0.6,0.44 -1.04,1.24 -0.4,0.76 -0.4,1.84 l 0,11.48 q 0,0.96 -0.28,1.76 -0.28,0.76 -0.6,1.36 -0.32,0.6 -0.6,1.08 -0.28,0.44 -0.28,0.8 0,0.32 0.32,0.76 0.32,0.4 0.8,0.8 0.48,0.4 0.96,0.76 0.52,0.36 0.88,0.6 l -0.64,0.88 q -0.48,-0.28 -1.52,-0.96 -1,-0.72 -2.04,-1.56 -1,-0.84 -1.8,-1.68 -0.76,-0.84 -0.76,-1.4 0,-0.44 0.28,-0.92 0.28,-0.52 0.6,-1.12 0.32,-0.6 0.6,-1.36 0.28,-0.8 0.28,-1.76 l 0,-9.8 q 0,-1.84 0.96,-2.8 l -4.84,0 q -0.6,0.44 -1.04,1.24 -0.4,0.76 -0.4,1.84 l 0,11.48 q 0,0.96 -0.28,1.76 -0.28,0.76 -0.6,1.36 -0.32,0.6 -0.6,1.08 -0.28,0.44 -0.28,0.8 0,0.32 0.32,0.76 0.32,0.4 0.8,0.8 0.48,0.4 0.96,0.76 0.52,0.36 0.88,0.6 l -0.64,0.88 q -0.48,-0.28 -1.52,-0.96 -1,-0.72 -2.04,-1.56 -1,-0.84 -1.8,-1.68 -0.76,-0.84 -0.76,-1.4 0,-0.44 0.28,-0.92 0.28,-0.52 0.6,-1.12 0.32,-0.6 0.6,-1.36 0.28,-0.8 0.28,-1.76 l 0,-3.2 q -0.92,-0.12 -1.8,-0.12 -1.2,0 -2.64,0.24 -1.4,0.24 -3.12,1.04 1.44,1.24 2.48,2.84 1.04,1.6 1.04,3.12 0,1.04 -0.4,2 -0.4,0.96 -1.16,1.72 -0.72,0.72 -1.8,1.16 -1.04,0.44 -2.36,0.44 -1.32,0 -2.68,-0.52 -1.36,-0.56 -2.56,-1.48 -1.2,-0.96 -2.24,-2.2 -1,-1.28 -1.64,-2.72 l 1.08,-0.64 q 1.4,2.24 2.68,3.28 1.28,1 2.76,1 1.04,0 1.88,-0.44 0.84,-0.44 1.44,-1.12 0.6,-0.72 0.92,-1.6 0.32,-0.92 0.32,-1.84 0,-1.96 -1.32,-1.96 -1.08,0 -2.08,0.64 -1,0.64 -1.6,1.56 l -3.92,-2.84 q 0.48,-1.12 1.72,-1.88 1.28,-0.76 2.72,-0.76 0.2,0 0.36,0.04 0.2,0 0.4,0.04 0.92,-0.72 1.16,-1.84 0.24,-1.16 0.24,-2.08 l 0,-1.68 q 0,-1.84 0.96,-2.8 l -2.04,0 q -0.84,0 -1.64,0.64 -0.8,0.6 -1.24,1.28 l -0.88,0 -3.56,-3.84 0.4,-0.96 10.6,0 2.64,2.88 z"
           style="font-style:normal;font-variant:normal;font-weight:normal;font-stretch:normal;font-family:jaini;-inkscape-font-specification:jaini;fill:#000000;fill-opacity:1;stroke:#000000;stroke-width:1.26588345;stroke-miterlimit:4;stroke-dasharray:none;stroke-opacity:1"
           id="path4184"
           inkscape:connector-curvature="0" />
      </g>
    </g>
  </g>
</svg>
